# xmcd
#
# Track frame offsets: 
#        150
#        3752
#        15128
#        30996
#        40998
#        54496
#        57356
#        70331
#        85767
#        89684
#        101586
#        110916
#        120092
#        130933
#        144990
#        156934
#        165845
#        179642
#        195174
#        208006
#        221351
#
# Disc length: 3153 seconds
#
# Revision: 0
# Processed by: cddbd v1.5.2PL0 Copyright (c) Steve Scherf et al.
# Submitted via: ExactAudioCopyFreeDBPlugin 1.0
#
DISCID=0c0c4f15
DTITLE=Billy Mata and The Texas Tradition - This is Tommy Dunca Vol. 2
DYEAR=1900
DGENRE=Country
TTITLE0=Introduction (Guich Koock)
TTITLE1=I'm Through Wasting Time on You
TTITLE2=I Was Just Walking Out the Door
TTITLE3=Stars Over San Antonio
TTITLE4=I Reckon I'm a Texan
TTITLE5=Interlude (Guich Koock)
TTITLE6=Excuse Me, I Gotta Go
TTITLE7=Got a Letter from My Kid Today
TTITLE8=Interview (Dave Alexander)
TTITLE9=There's Not a Cow in Texas (If You're Not the One I Love)
TTITLE10=See Who's Sorry Now
TTITLE11=Interview (Glynn Duncan)
TTITLE12=Texas Moon
TTITLE13=Wrong Road Home Blues
TTITLE14=Just a Plain Old Country Boy
TTITLE15=Interview (Stretch Dawson)
TTITLE16=Sick, Sober and Sorry
TTITLE17=Worried Over You
TTITLE18=Who Drank My Beer (While I Was in the Rear)
TTITLE19=Sweet Mama Hurry Home or I'll Be Gone
TTITLE20=High Country
EXTD=
EXTT0=
EXTT1=
EXTT2=
EXTT3=
EXTT4=
EXTT5=
EXTT6=
EXTT7=
EXTT8=
EXTT9=
EXTT10=
EXTT11=
EXTT12=
EXTT13=
EXTT14=
EXTT15=
EXTT16=
EXTT17=
EXTT18=
EXTT19=
EXTT20=
PLAYORDER=
